# AmpliWorld river, 34 m waterfall curtain and sea | metres, Y up
o GC_WATER
v 993.5584 62.0000 704.1559
v 1006.4416 62.0000 655.8441
v 843.1320 60.0000 664.0381
v 856.8680 60.0000 615.9619
v 843.1320 26.0000 664.0381
v 856.8680 26.0000 615.9619
v 635.7221 24.0000 611.9553
v 664.2779 24.0000 548.0447
v 360.9702 19.0000 470.7782
v 399.0298 19.0000 389.2218
v 21.3202 13.0000 346.9305
v 78.6798 13.0000 253.0695
v -203.5606 9.0000 133.5779
v -116.4394 9.0000 66.4221
v -368.3843 5.0000 -144.5182
v -271.6157 5.0000 -215.4818
v -652.2156 1.0000 -453.3789
v -547.7844 1.0000 -546.6211
v -886.3439 0.0000 -679.1848
v -753.6561 0.0000 -800.8152
v -1000.0000 0.0000 -1000.0000
v -1000.0000 0.0000 -460.0000
v -780.0000 0.0000 -560.0000
v -620.0000 0.0000 -760.0000
v -520.0000 0.0000 -1000.0000
f 1 2 3
f 2 4 3
f 3 4 5
f 4 6 5
f 5 6 7
f 6 8 7
f 7 8 9
f 8 10 9
f 9 10 11
f 10 12 11
f 11 12 13
f 12 14 13
f 13 14 15
f 14 16 15
f 15 16 17
f 16 18 17
f 17 18 19
f 18 20 19
f 21 22 23
f 21 23 24
f 21 24 25
